<?xml version="1.0" encoding="UTF-8"?>
<svg width="256" height="256" version="1.1" viewBox="0 0 256 256" xmlns="http://www.w3.org/2000/svg">
 <path d="m256 128c0 70.69-57.41 128-128.2 128-67.19 0-122.3-51.58-127.8-117.2h169.5v-21.52h-169.5c5.474-65.66 60.59-117.2 127.8-117.2 70.82 0 128.2 57.31 128.2 128z" clip-rule="evenodd" fill="#0052FF" fill-rule="evenodd"/>
 <ellipse cx="128.8" cy="192.8" rx="67.77" ry="61.33" fill="#f0f" style="paint-order:stroke fill markers"/>
 <path d="m86.92 216.7c9.897 6.657 22.22 7.431 33.78 7.581 8.358 0.4629 17.22 0.1903 24.72-3.976 5.713-0.6491 7.73-6.832 8.858-11.61 1.824-5.153 2.118-11.7-2.142-15.78-3.594-4.76-9.583-6.301-15.21-6.953-10.98-1.64-21.89-3.954-32.32-7.825-5.484-0.2814-6.921-7.392-3.135-10.77 3.199-3.118 6.461-6.407 10.79-7.97 7.036-2.686 14.65-3.319 22.03-4.493 8.181-0.9508 16.57-1.558 24.7 0.0518 4.001 0.3868 8.531-0.0962 11.8 2.715 4.091 0.1892 7.382 6.448 1.265 6.103-4.096-1.79-8.358-2.755-12.87-2.59-8.482-0.0761-16.9 1.867-25.39 1.07-7.084 0.1107-14.01 1.881-20.89 3.387-4.814 1.49-2.592 7.004 1.395 7.787 4.558 1.911 9.72 1.625 14.23 3.695 7.533 1.93 14.91 4.628 21.52 8.775 5.561 2.684 11.25 5.967 14.2 11.65 2.486 3.541 3.454 7.923 3.681 12.15-0.3422 4.981-4.216 8.458-6.629 12.48-3.252 4.065-8.099 6.439-12.82 8.359-4.748 1.329-9.723 1.947-14.62 2.249-9.105-0.2266-18.26 0.4421-27.33-0.3456-7.104-1.54-14.71-2.363-20.74-6.775-3.103-2.982-6.137-9.34 1.13-8.965z" fill="#fff" fill-rule="evenodd" style="paint-order:stroke fill markers"/>
</svg>
