<?xml version="1.0" encoding="UTF-8"?>
<svg width="136.1mm" height="103.4mm" version="1.1" viewBox="0 0 136.1 103.4" xmlns="http://www.w3.org/2000/svg" xmlns:xlink="http://www.w3.org/1999/xlink">
 <defs>
  <linearGradient id="linearGradient17" x1="140.1" x2="157.1" y1="127" y2="126.6" gradientTransform="matrix(.6809 0 0 .6515 9.69 60.43)" gradientUnits="userSpaceOnUse">
   <stop stop-color="#ff0" offset="0"/>
   <stop stop-color="#adad56" offset="1"/>
  </linearGradient>
  <linearGradient id="linearGradient19" x1="60.37" x2="49.45" y1="134.6" y2="134.3" gradientTransform="matrix(.6809 0 0 .6515 9.69 60.43)" gradientUnits="userSpaceOnUse">
   <stop stop-color="#ff0" offset="0"/>
   <stop stop-color="#adad56" offset="1"/>
  </linearGradient>
 </defs>
 <g transform="translate(-30.36 -70.02)">
  <path d="m115.7 171.6c5.341 0.4165 11.42 0.6504 15.65-3.266 6.828-5.189 11.58-12.6 15.84-19.92 3.344-7.122 2.283-15.18 2.732-22.77 0.9815-2.318 2.526-5.525 3.498-8.55 3.128-7.781 2.602-16.43 1.442-24.56-1.762-5.668-5.503-10.55-9.337-14.98-5.335-4.624-12.95-4.479-19.6-4.112-5.326 0.8201-10.51 2.51-15.62 4.172-8.256 3.794-14.31 11.3-18.24 19.3-3.678 9.096-4.461 19.01-4.156 28.73 0.06125 7.247 1.402 14.43 3.098 21.45 4.747 10.81 13.21 20.69 24.68 24.51z" fill="#ff0" stroke-width="1.206" style="paint-order:stroke fill markers"/>
  <path d="m135 70.81c3.727-0.1232 7.194 0.5055 10.92 0.8518 3.072 0.09425 6.152 1.024 8.948 2.111 3.363 0.5198 4.705 4.083 7.179 6.023 2.662 2 1.892 5.378 1.92 8.252 0.0379 4.129-0.0607 8.263 0 12.39 0.4933 4.459 0.9189 8.871 0.8283 13.42-0.1322 3.418-1.861 6.209-2.193 9.437-1.415 3.302-2.051 6.841-3.336 10.16-0.9137 3.882-1.569 7.903-2.323 11.88-0.8699 3.691-2.407 7.032-3.846 10.42-1.096 3.444-3.837 5.815-6.268 8.312-2.846 1.183-4.999 3.716-7.793 5.598-0.9514 0.3186-3.995 1.518-5.539 1.606-2.116 0.3532-7.561 1.399-6.687-1.843 2.319-1.448 5.037-2.455 7.265-4.19 3.083-1.746 4.388-5.31 5.692-8.297 0.9755-2.463 2.662-4.878 4.27-7.264 1.737-2.376 2.613-5.246 4.009-8.054 0.9336-3.155 1.817-6.645 2.193-10.07 2e-3 -3.128 0.5832-6.115 1.292-8.957 0.5015-3.584 1.557-7.313 1.972-11 0.2984-3.898 1.747-7.556 2-11.5 0.0925-4.581-1.075-9.013-2-13.47-1.131-2.326-3.537-2.891-4.398-4.796-0.8817-3-3.858-2.761-5.611-4.937-1.482-2.264-4.33-3.142-7.063-4.015-1.335-0.2456-1.354-0.9151-1.429-2.051z" fill="#c0c000" stroke-width="1.097" style="paint-order:stroke fill markers"/>
 </g>
 <g transform="translate(-37.66 -74.03)" fill="#666" stroke-width="1.058">
  <path d="m121.7 176.8c9.342-0.374 19.59 1.829 27.97-3.505 3.738-2.097 7.086-4.9 9.171-8.707 4.371-5.444 6.179-12.31 7.275-19.07 2.295-10.2 4.577-20.4 6.712-30.64 0.9087-6.32 1.096-12.76 0.6316-19.12-1.212-4.582-1.686-9.638-4.521-13.58-5.695-4.871-13.21-6.955-20.5-8.035-6.72-0.5938-13.34 0.9111-20.01 1.517-4.482 0.6497-9.039 1.453-12.96 3.821-1.623 1.236-8.781 2.306-4.505 4.105 2.543 2.225 5.545-1.867 8.357-2.183 7.288-4.128 15.99-3.529 24.01-4.918 7.838-0.8342 15.79 0.9586 22.87 4.319-1.251-0.761-4.593-2.723-1.527-0.7622 3.754 3.608 4.02 9.254 5.327 14.02 1.189 12.07-0.9775 24.17-4.239 35.76-1.243 7.204-3.067 14.29-4.686 21.41-1.401 6.228-5.163 11.59-9.327 16.29-4.652 3.791-10.17 6.805-16.3 7.045-5.633 0.4848-11.29-0.2267-16.94-0.0868l3.188 2.316z" style="paint-order:stroke fill markers"/>
  <path d="m159.9 130.1c2.357-6.874 5.705-13.73 5.154-21.2-0.1024-5.831 0.1388-12.06-3.366-17.09-2.861-4.497-5.705-9.445-10.71-11.85-4.993-3.528-11.06-4.999-17.12-4.774-6.448-0.2374-12.48 2.471-18.6 4.104-8.068 3.56-13.93 10.84-18.02 18.44-3.474 8.689-4.907 18.09-4.513 27.43 0.1132 9.461 1.535 18.98 4.519 27.97 4.013 9.153 12.61 15.21 20.91 20.19 5.148 3.344 11.65 3.24 17.5 2.34 5.551-1.76 9.72-6.311 13.32-10.69 3.127-4.449 6.42-8.906 8.658-13.87 2.547-6.832 1.496-14.19 2.124-21.27 0.2442-1.12-4.118-3.784-3.602-1.129-0.4449 8.336 0.8109 17.47-4.081 24.83-4.724 7.428-9.832 15.46-18 19.44-4.513 1.345-9.462 1.139-14.03 0.1832-1.639-0.2301-6.855-3.481-3.004-1.196 3.832 2.375-3.009-2.238-4.163-3.138-6.594-4.892-12.47-11.52-13.98-19.84-2.309-9.312-3.256-18.92-2.749-28.5 0.2784-7.625 1.752-15.35 5.087-22.25 4.796-8.233 11.86-16.21 21.63-18.13 5.436-1.754 11.07-3.158 16.83-2.564 3.481-0.338 9.647 2.064 10.79 2.839-2.132-1.229-2.695-1.604-0.2106 6e-3 4.14 3.121 6.674 7.905 9.288 12.28 2.653 5.509 2.145 11.87 2.147 17.82-0.2646 6.242-2.922 12.03-5.254 17.72 1.149 0.6384 2.298 1.277 3.447 1.915z" style="paint-order:stroke fill markers"/>
 </g>
 <g transform="translate(-30.36 -70.02)">
  <path d="m84.5 95.89c1.61 1.133-3.488-0.2678-4.386 0.1075-9.406-0.1471-18.86 1.188-27.86 3.785-6.902 2.244-13.57 5.801-18.39 11.12-2.265 2.651-2.771 7.297 0.2649 9.465 2.407 1.568 0.5757 0.6409 0.9997 0.4134 6.471 2.834 13.72 3.534 20.75 4.059 13.58 0.8258 27.18-0.5332 40.68-1.859 7.536-0.9359 15.19-2.288 22.03-5.556 3.59-1.623 5.945-5.443 4.473-9.21-1.32-5.284-6.374-9.482-12.01-10.11-8.798-1.137-17.7-1.721-26.56-2.21z" fill="#ff0" stroke-width=".8424" style="paint-order:stroke fill markers"/>
  <rect x="50.18" y="120.8" width="56.14" height="51.82" ry="0" fill="#ff0" stroke-width=".7319" style="paint-order:stroke fill markers"/>
  <path d="m105.4 122.9c0.2605 8.256 1.235 16.5 0.793 24.77-0.1066 5.728 0.043 11.46 0.0305 17.19-0.4334 2.198-2.136 6.311 1.27 6.989 2.947 0.2327 5.358-1.808 8.071-2.584 3.613-1.458 6.765-3.823 9.171-6.776 1.744-1.834 2.891-4.342 2.339-6.844-0.0558-4.698 0.1506-9.444-0.8196-14.07-0.106-4.481-0.6217-8.938-1.353-13.36-0.3234-3.136-0.3678-6.302-0.0633-9.441 2.68-2.331-2.842-4.917-3.496-1.662-3.244 2.01-7.189 2.501-10.92 3.082-1.749 0.0509-5.361 0.336-5.021 2.712z" fill="url(#linearGradient17)" stroke-width=".7437" style="paint-order:stroke fill markers"/>
  <path d="m50.64 125.4c-0.4549 3.838-0.447 7.775 0.655 11.51 0.631 2.911-0.08897 5.895 0.1673 8.835-0.688-0.4564-0.2863 2.369-0.3132 3.069 0.07073 4.57 0.01801 9.148-0.498 13.69-0.08031 2.505 0.3648 5.052-0.2426 7.52-2.02 1.586-4.372-0.7325-6.41-1.248-1.478-1.095-3.621-2.121-4.725-3.134-2.098-0.4241-3.041-3.339-5.115-3.193-2.006-0.7861-1.331-3.658-1.966-5.4 0.0024-1.882 0.1782-3.764 0.09993-5.659-0.03991-4.856 0.1284-9.73-0.1096-14.58-0.287-2.314 0.6334-4.579 0.3769-6.9 0.02806-2.006 0.4013-4.078-0.2497-6.028 0.1135-1.291-0.8554-5.168 1.096-4.334 1.277 1.423 3.425 1.658 5.153 2.532 2.464-0.187 4.993-0.0989 7.356 0.812 1.53 0.6128 3.893 0.4554 4.68 2.101-0.0015 0.1338 0.03104 0.2649 0.04497 0.3975z" fill="url(#linearGradient19)" stroke-width=".709" style="paint-order:stroke fill markers"/>
  <path d="m30.6 117c-0.8514 3.715 1.202 6.895 4.628 8.571 2.656 1.843-3.279-2.289 0.1691 0.1207 2.327 1.609 0.2689 0.2127-0.7482-0.5225 1.354 0.9839 6.28 4.226 2.24 1.49 1.574 1.215 4.2 3.045 5.316 3.818-1.375-0.9554-3.344-2.326-0.7701-0.5233 5.243 3.664 11.93 4.821 18.31 4.627 12.27-0.0141 24.54 0.1462 36.81-0.1036 5.426-0.1709 10.91-0.4765 16.07-2.226 3.443-1.076 7.418-1.95 9.512-5.059 2.684-2.748 5.149-6.507 4.31-10.41-1.726-1.714-1.068-4.991-3.433-6.016-2.566-1.807 0.4548 3.696 1.03 4.674 1.017 3.762-1.535 7.438-4.116 10.1-2.272 3.159-6.456 4.031-10.05 5.142-9.14 2.733-18.85 1.927-28.28 2.127-9.611-0.1754-19.23 0.234-28.84-0.1591-4.319-0.5064-8.65-1.625-12.3-3.963 1.241 0.8882 2.527 1.774 0.5455 0.3889-3.15-2.231 2.647 1.913-0.5317-0.4352-1.306-1.008-5.698-4.037-5.351-3.714 2.862 2.015-0.08194-0.0774-1.292-0.911 1.33 0.8538 2.575 1.998 0.7159 0.303-3.097-1.329-0.0249-5.456-2.759-6.592l-1.181-0.7291z" fill="#666" stroke-width=".7771" style="paint-order:stroke fill markers"/>
  <path d="m30.8 122.4c-0.8514 3.715 1.202 6.895 4.628 8.571 2.656 1.843-3.279-2.289 0.1691 0.1207 2.327 1.609 0.2689 0.2127-0.7482-0.5225 1.354 0.9839 6.28 4.226 2.24 1.49 1.574 1.215 4.2 3.045 5.316 3.818-1.375-0.9554-3.344-2.326-0.7701-0.5233 5.243 3.664 11.93 4.821 18.31 4.627 12.27-0.0141 24.54 0.1462 36.81-0.1036 5.426-0.1709 10.91-0.4765 16.07-2.226 3.443-1.076 7.418-1.95 9.512-5.059 2.684-2.748 5.149-6.507 4.31-10.41-1.726-1.714-1.067-4.991-3.433-6.016-2.566-1.807 0.4548 3.696 1.03 4.674 1.017 3.762-1.535 7.438-4.116 10.1-2.272 3.159-6.456 4.031-10.05 5.142-9.14 2.733-18.85 1.927-28.28 2.127-9.611-0.1754-19.23 0.234-28.84-0.1591-4.319-0.5064-8.65-1.625-12.3-3.963 1.241 0.8882 2.527 1.774 0.5455 0.3889-3.15-2.231 2.647 1.913-0.5317-0.4352-1.306-1.008-5.698-4.037-5.351-3.714 2.862 2.015-0.08194-0.0774-1.292-0.911 1.33 0.8538 2.575 1.998 0.7159 0.303-3.097-1.329-0.02491-5.456-2.759-6.592l-1.181-0.7291z" fill="#666" stroke-width=".7771" style="paint-order:stroke fill markers"/>
  <path d="m30.94 126.9c-0.8514 3.715 1.202 6.895 4.628 8.571 2.656 1.843-3.279-2.289 0.1691 0.1207 2.327 1.609 0.2689 0.2127-0.7482-0.5225 1.354 0.9839 6.28 4.226 2.24 1.49 1.574 1.215 4.2 3.045 5.316 3.818-1.375-0.9554-3.344-2.326-0.7701-0.5233 5.243 3.664 11.93 4.821 18.31 4.627 12.27-0.0141 24.54 0.1462 36.81-0.1036 5.426-0.1709 10.91-0.4765 16.07-2.226 3.443-1.076 7.418-1.95 9.512-5.059 2.684-2.748 5.149-6.507 4.31-10.41-1.726-1.714-1.067-4.991-3.433-6.016-2.566-1.807 0.4548 3.696 1.03 4.674 1.017 3.762-1.535 7.438-4.116 10.1-2.272 3.159-6.456 4.031-10.05 5.142-9.14 2.733-18.85 1.927-28.28 2.127-9.611-0.1754-19.23 0.234-28.84-0.1591-4.319-0.5064-8.65-1.625-12.3-3.963 1.241 0.8882 2.527 1.774 0.5455 0.3889-3.15-2.231 2.647 1.913-0.5317-0.4352-1.306-1.008-5.698-4.037-5.351-3.714 2.862 2.015-0.08194-0.0774-1.292-0.911 1.33 0.8538 2.575 1.998 0.7159 0.303-3.097-1.329-0.02491-5.456-2.759-6.592-0.3935-0.243-0.7871-0.4861-1.181-0.7291z" fill="#666" stroke-width=".7771" style="paint-order:stroke fill markers"/>
  <path d="m31.08 131.4c-0.8514 3.715 1.202 6.895 4.628 8.571 2.656 1.843-3.279-2.289 0.1691 0.1207 2.327 1.609 0.2689 0.2127-0.7482-0.5225 1.354 0.9839 6.28 4.226 2.24 1.49 1.574 1.215 4.2 3.045 5.316 3.818-1.375-0.9554-3.344-2.326-0.7701-0.5233 5.243 3.664 11.93 4.821 18.31 4.627 12.27-0.0141 24.54 0.1462 36.81-0.1036 5.426-0.1709 10.91-0.4765 16.07-2.226 3.443-1.076 7.418-1.95 9.512-5.059 2.684-2.748 5.149-6.507 4.31-10.41-1.726-1.714-1.068-4.991-3.433-6.016-2.566-1.807 0.4548 3.696 1.03 4.674 1.017 3.762-1.535 7.438-4.116 10.1-2.272 3.159-6.456 4.031-10.05 5.142-9.14 2.733-18.85 1.927-28.28 2.127-9.611-0.1754-19.23 0.234-28.84-0.1591-4.319-0.5064-8.65-1.625-12.3-3.963 1.241 0.8882 2.527 1.774 0.5455 0.3889-3.15-2.231 2.647 1.913-0.5317-0.4352-1.306-1.008-5.698-4.037-5.351-3.714 2.862 2.015-0.08194-0.0774-1.292-0.911 1.33 0.8538 2.575 1.998 0.7159 0.303-3.097-1.329-0.02491-5.456-2.759-6.592l-1.181-0.7291z" fill="#666" stroke-width=".7771" style="paint-order:stroke fill markers"/>
  <path d="m31.28 136.9c-0.8514 3.715 1.202 6.895 4.628 8.571 2.656 1.843-3.279-2.289 0.1691 0.1207 2.327 1.609 0.2689 0.2127-0.7482-0.5225 1.354 0.9839 6.28 4.226 2.24 1.49 1.574 1.215 4.2 3.045 5.316 3.818-1.375-0.9554-3.344-2.326-0.7701-0.5233 5.243 3.664 11.93 4.821 18.31 4.627 12.27-0.0141 24.54 0.1462 36.81-0.1036 5.426-0.1709 10.91-0.4765 16.07-2.226 3.443-1.076 7.418-1.95 9.512-5.059 2.684-2.748 5.149-6.507 4.31-10.41-1.726-1.714-1.067-4.991-3.433-6.016-2.566-1.807 0.4548 3.696 1.03 4.674 1.017 3.762-1.535 7.438-4.116 10.1-2.272 3.159-6.456 4.031-10.05 5.142-9.14 2.733-18.85 1.927-28.28 2.127-9.611-0.1754-19.23 0.234-28.84-0.1591-4.319-0.5064-8.65-1.625-12.3-3.963 1.241 0.8882 2.527 1.774 0.5455 0.3889-3.15-2.231 2.647 1.913-0.5317-0.4352-1.306-1.008-5.698-4.037-5.351-3.714 2.862 2.015-0.08194-0.0774-1.292-0.911 1.33 0.8538 2.575 1.998 0.7159 0.303-3.097-1.329-0.02491-5.456-2.759-6.592-0.3935-0.243-0.7871-0.4861-1.181-0.7291z" fill="#666" stroke-width=".7771" style="paint-order:stroke fill markers"/>
  <path d="m31.42 141.4c-0.8514 3.715 1.202 6.895 4.628 8.571 2.656 1.843-3.279-2.289 0.1691 0.1207 2.327 1.609 0.2689 0.2127-0.7482-0.5225 1.354 0.9839 6.28 4.226 2.24 1.49 1.574 1.215 4.2 3.045 5.316 3.818-1.375-0.9554-3.344-2.326-0.7701-0.5233 5.243 3.664 11.93 4.821 18.31 4.627 12.27-0.0141 24.54 0.1462 36.81-0.1036 5.426-0.1709 10.91-0.4765 16.07-2.226 3.443-1.076 7.418-1.95 9.512-5.059 2.684-2.748 5.149-6.507 4.31-10.41-1.726-1.714-1.067-4.991-3.433-6.016-2.566-1.807 0.4548 3.696 1.03 4.674 1.017 3.762-1.535 7.438-4.116 10.1-2.272 3.159-6.456 4.031-10.05 5.142-9.14 2.733-18.85 1.927-28.28 2.127-9.611-0.1754-19.23 0.234-28.84-0.1591-4.319-0.5064-8.65-1.625-12.3-3.963 1.241 0.8882 2.527 1.774 0.5455 0.3889-3.15-2.231 2.647 1.913-0.5317-0.4352-1.306-1.008-5.698-4.037-5.351-3.714 2.862 2.015-0.08194-0.0774-1.292-0.911 1.33 0.8538 2.575 1.998 0.7159 0.303-3.097-1.329-0.02491-5.456-2.759-6.592-0.3935-0.243-0.7871-0.4861-1.181-0.7291z" fill="#666" stroke-width=".7771" style="paint-order:stroke fill markers"/>
  <path d="m31.31 145.9c-0.8514 3.715 1.202 6.895 4.628 8.571 2.656 1.843-3.279-2.289 0.1691 0.1207 2.327 1.609 0.2689 0.2127-0.7482-0.5225 1.354 0.9839 6.28 4.226 2.24 1.49 1.574 1.215 4.2 3.045 5.316 3.818-1.375-0.9554-3.344-2.326-0.7701-0.5233 5.243 3.664 11.93 4.821 18.31 4.627 12.27-0.0141 24.54 0.1462 36.81-0.1036 5.426-0.1709 10.91-0.4765 16.07-2.226 3.443-1.076 7.418-1.95 9.512-5.059 2.684-2.748 5.149-6.507 4.31-10.41-1.726-1.714-1.067-4.991-3.433-6.016-2.566-1.807 0.4548 3.696 1.03 4.674 1.017 3.762-1.535 7.438-4.116 10.1-2.272 3.159-6.456 4.031-10.05 5.142-9.14 2.733-18.85 1.927-28.28 2.127-9.611-0.1754-19.23 0.234-28.84-0.1591-4.319-0.5064-8.65-1.625-12.3-3.963 1.241 0.8882 2.527 1.774 0.5455 0.3889-3.15-2.231 2.647 1.913-0.5317-0.4352-1.306-1.008-5.698-4.037-5.351-3.714 2.862 2.015-0.08195-0.0774-1.292-0.911 1.33 0.8538 2.575 1.998 0.7159 0.303-3.097-1.329-0.02491-5.456-2.759-6.592-0.3935-0.243-0.7871-0.4861-1.181-0.7291z" fill="#666" stroke-width=".7771" style="paint-order:stroke fill markers"/>
  <path d="m31.51 151.3c-0.8514 3.715 1.202 6.895 4.628 8.571 2.656 1.843-3.279-2.289 0.1691 0.1207 2.327 1.609 0.2689 0.2127-0.7482-0.5225 1.354 0.9839 6.28 4.226 2.24 1.49 1.574 1.215 4.2 3.045 5.316 3.818-1.375-0.9554-3.344-2.326-0.7701-0.5233 5.243 3.664 11.93 4.821 18.31 4.627 12.27-0.0141 24.54 0.1462 36.81-0.1036 5.426-0.1709 10.91-0.4765 16.07-2.226 3.443-1.076 7.418-1.95 9.512-5.059 2.684-2.748 5.149-6.507 4.31-10.41-1.726-1.714-1.067-4.991-3.433-6.016-2.566-1.807 0.4548 3.696 1.03 4.674 1.017 3.762-1.535 7.438-4.116 10.1-2.272 3.159-6.456 4.031-10.05 5.142-9.14 2.733-18.85 1.927-28.28 2.127-9.611-0.1754-19.23 0.234-28.84-0.1591-4.319-0.5064-8.65-1.625-12.3-3.963 1.241 0.8882 2.527 1.774 0.5455 0.3889-3.15-2.231 2.647 1.913-0.5317-0.4352-1.306-1.008-5.698-4.037-5.351-3.714 2.862 2.015-0.08194-0.0774-1.292-0.911 1.33 0.8538 2.575 1.998 0.7159 0.303-3.097-1.329-0.02491-5.456-2.759-6.592-0.3935-0.243-0.7871-0.4861-1.181-0.7291z" fill="#666" stroke-width=".7771" style="paint-order:stroke fill markers"/>
  <path d="m31.66 155.8c-0.8514 3.715 1.202 6.895 4.628 8.571 2.656 1.843-3.279-2.289 0.1691 0.1207 2.327 1.609 0.2689 0.2127-0.7482-0.5225 1.354 0.9839 6.28 4.226 2.24 1.49 1.574 1.215 4.2 3.045 5.316 3.818-1.375-0.9554-3.344-2.326-0.7701-0.5233 5.243 3.664 11.93 4.821 18.31 4.627 12.27-0.0141 24.54 0.1462 36.81-0.1036 5.426-0.1709 10.91-0.4765 16.07-2.226 3.443-1.076 7.418-1.95 9.512-5.059 2.684-2.748 5.149-6.507 4.31-10.41-1.726-1.714-1.067-4.991-3.433-6.016-2.566-1.807 0.4547 3.696 1.03 4.674 1.017 3.762-1.535 7.438-4.116 10.1-2.272 3.159-6.456 4.031-10.05 5.142-9.14 2.733-18.85 1.927-28.28 2.127-9.611-0.1754-19.23 0.234-28.84-0.1591-4.319-0.5064-8.65-1.625-12.3-3.963 1.241 0.8882 2.527 1.774 0.5455 0.3889-3.15-2.231 2.647 1.913-0.5317-0.4352-1.306-1.008-5.698-4.037-5.351-3.714 2.862 2.015-0.08194-0.0774-1.292-0.911 1.33 0.8538 2.575 1.998 0.7159 0.303-3.097-1.329-0.02491-5.456-2.759-6.592-0.3935-0.243-0.7871-0.4861-1.181-0.7291z" fill="#666" stroke-width=".7771" style="paint-order:stroke fill markers"/>
  <path d="m83.24 95.33c-10.74-0.8195-21.56 0.8257-31.91 3.471-7.042 2.18-13.82 5.721-18.97 10.86-2.485 2.714-2.983 7.522 0.4075 9.79 7.265 4.694 16.29 5.587 24.8 6.237 13.8 0.8464 27.59-0.7028 41.31-1.962 7.44-0.8729 14.99-2.139 21.83-5.15 3.909-1.73 6.15-5.938 4.407-9.896-1.621-5.539-7.297-8.483-12.33-10.81-6.516-1.684-13.35-1.568-20.02-2.302-3.018-0.03455-8.072-0.9919-9.866-0.4551 1.562 1.705 3.854 1.274 5.992 1.51 7.588 0.5113 15.21 0.9196 22.74 2.007 1.622-0.08158 6.875 2.586 3.271 0.6315 4.496 2.372 8.572 6.505 8.45 11.73-0.0713 4.437-5.012 6.621-8.785 7.877-12.78 4.231-26.45 4.49-39.8 5.487-12.05 0.589-24.42 0.5682-36.08-2.759-1.353-0.2985-4.434-1.922-2.547-0.5186-3.419-1.648-4.456-5.839-2.477-8.918 2.89-4.258 7.679-6.953 12.25-9.327 9.125-4.319 19.42-5.617 29.47-6.313 2.764-0.3932 8.61 0.5111 9.52-0.01179-0.5544-0.3928-1.109-0.7856-1.663-1.178z" fill="#666" stroke-width=".7049" style="paint-order:stroke fill markers"/>
 </g>
</svg>
