<?xml version="1.0" encoding="UTF-8"?>
<svg width="24" height="24" fill="none" version="1.1" viewBox="0 0 24 24" xmlns="http://www.w3.org/2000/svg">
 <path d="M12 24c6.627 0 12-5.373 12-12S18.627 0 12 0 0 5.373 0 12s5.373 12 12 12" fill="#fff"/>
 <path d="M18.166 14.773V6.166c-.012-.72-.572-1.3-1.275-1.3H8.124c-1.892.03-3.413 1.616-3.413 3.56 0 .656.172 1.218.435 1.71.223.41.571.796.914 1.083.097.082.052.047.349.234.411.258.88.386.88.386l-.006 5.147c.012.246.035.48.098.697a2.27 2.27 0 0 0 1.354 1.551c.28.112.595.188.932.193l7.001.024c1.395 0 2.526-1.16 2.526-2.594a2.6 2.6 0 0 0-1.028-2.084" fill="#FFEEDA"/>
 <path d="M18.337 16.92c-.029.92-.766 1.657-1.669 1.657l-4.818-.017a2.63 2.63 0 0 0 .617-1.692c0-1.013-.588-1.71-.588-1.71h4.795c.92 0 1.669.767 1.669 1.71z" fill="#EBC28E"/>
 <path d="M6.518 10.496c-.554-.539-.943-1.236-.943-2.061v-.088C5.62 6.936 6.752 5.8 8.13 5.759h8.767c.229.012.412.176.412.416v7.6c.2.035.297.064.491.134.155.059.366.182.366.182V6.175c-.011-.72-.572-1.3-1.274-1.3H8.124c-1.892.03-3.412 1.616-3.412 3.56 0 1.13.503 2.096 1.326 2.775.057.047.108.105.257.105.257 0 .44-.21.429-.439-.006-.193-.086-.263-.206-.38" fill="#101010"/>
 <path d="M16.67 14.273H9.794a.85.85 0 0 0-.834.861v1.013c.011.468.4.866.863.866h.508v-.866h-.508v-.99h.28c.869 0 1.509.826 1.509 1.71 0 .785-.697 1.786-1.863 1.704-1.035-.07-1.595-1.013-1.595-1.704V8.284a.696.696 0 0 0-.686-.703h-.686v.878h.509v8.414c-.029 1.71 1.189 2.57 2.458 2.57l6.927.024c1.394 0 2.526-1.16 2.526-2.594 0-1.435-1.138-2.6-2.532-2.6m1.669 2.653c-.029.919-.766 1.657-1.67 1.657l-4.817-.018a2.63 2.63 0 0 0 .617-1.692c0-1.013-.589-1.71-.589-1.71h4.796c.92 0 1.669.767 1.669 1.71zM14.818 8.618H9.634V7.74h5.184c.235 0 .429.193.429.44 0 .24-.189.438-.429.438" fill="#101010"/>
 <path d="M14.818 12.75H9.634v-.878h5.184c.235 0 .429.193.429.44 0 .24-.189.438-.429.438M15.733 10.68H9.634v-.878h6.093c.234 0 .429.193.429.439a.43.43 0 0 1-.423.439" fill="#101010"/>
 <g transform="matrix(1.658 0 0 1.59 -15.06 -15.36)" stroke-width="4">
  <ellipse cx="16.57" cy="16.58" rx="3.361" ry="3.346" fill="#f0f" style="paint-order:stroke fill markers"/>
  <path d="m17.6 14.74c-0.4414-0.1317-0.9107-0.23-1.37-0.1357-0.1849 0.02166-0.3963 0.06513-0.4983 0.2394-0.121 0.1404-0.2078 0.3094-0.2223 0.4961-0.04425 0.2372-0.03274 0.5463 0.2023 0.6812 0.3095 0.2218 0.6784 0.3457 1.055 0.3867 0.3671 0.06686 0.7273 0.184 1.056 0.3626-0.05934-0.03453-0.2446-0.131-0.216-0.1285 0.1822 0.07977 0.1895 0.3057 0.1066 0.4607-0.1036 0.2644-0.2956 0.482-0.4831 0.6899-0.2622 0.2212-0.5809 0.3787-0.915 0.4544-0.2074 0.02987-0.4213-0.02346-0.6008-0.1284 0.07108 0.03207 0.3463 0.2182 0.1768 0.05412-0.1562-0.1741-0.2808-0.3798-0.3438-0.6061-0.0989-0.03196-0.2819-0.1611-0.3263-0.1301 0.1124 0.3533 0.3374 0.6892 0.677 0.857 0.258 0.1572 0.5837 0.2297 0.8722 0.1132 0.2337-0.08909 0.4544-0.2115 0.6683-0.3398 0.2024-0.1498 0.3425-0.3653 0.4881-0.567 0.09576-0.1608 0.1893-0.3475 0.1629-0.5394-0.04952-0.2021-0.2904-0.2444-0.4389-0.3548-0.3743-0.2139-0.7865-0.3608-1.214-0.4186-0.2154-0.03738-0.4339-0.0795-0.6312-0.1778 0.06452 0.03744 0.3315 0.2054 0.1462 0.07543-0.1975-0.1972-0.1532-0.5073-0.0875-0.7513 0.075-0.1825 0.1935-0.3759 0.3813-0.4573 0.2961-0.1083 0.622-0.1192 0.9327-0.08359 0.2397 0.02975 0.4765 0.08881 0.702 0.1744-0.0893-0.07951-0.1869-0.1507-0.2793-0.227z" fill="#fff" style="paint-order:stroke fill markers"/>
 </g>
</svg>
