<?xml version="1.0" encoding="UTF-8"?>
<svg width="151.7mm" height="172.3mm" version="1.1" viewBox="0 0 151.7 172.3" xmlns="http://www.w3.org/2000/svg">
 <g transform="translate(-20.9 -55.15)">
  <path d="m56.92 186.8c0.1165-9.345 2.159-19.47-3.03-27.94-3.946-7.691-8.49-15.07-13.66-21.96-2.379-5.174-6.661-8.914-10.61-12.59-3.264-3.993-12.27-6.573-6.044-11.92 4.855-5.592 11.49-9.439 15.37-15.9 5.319-7.279 14.81-9.064 22.21-13.5 6.853-4.1 14.35-7.241 20.45-12.47 9.67-5.538 20.39-8.885 30.34-13.8 8.121-4.886 2.265 8.866 4.264 12.82 0.8903 12.19 3.303 24.21 5.176 36.27 2.55 7.214 4.695 14.99 9.075 21.27 4.556 3.689 7.335 9.554 13.01 11.65 3.956 2.16 8.526 4.777 10.87 8.681" stroke="#868686" stroke-width="1.058" style="paint-order:stroke fill markers"/>
  <ellipse transform="rotate(66.11)" cx="208.5" cy="-23.8" rx="20.8" ry="71.51" stroke="#868686" stroke-width="1.058" style="paint-order:stroke fill markers"/>
  <ellipse transform="matrix(.8488 .5287 -.9033 .429 0 0)" cx="251.4" cy="114.3" rx="9.052" ry="49.91" fill="#6e6e6e" stroke-width=".5833" style="paint-order:stroke fill markers"/>
  <path d="m56.55 185c6.657-3.941 14.74-3.756 22.11-5.421 7.512 0.1572 13.84-3.715 21-5.362 5.624-2.867 11.33-5.567 17.45-7.223 7.714-3.606 14.73-8.553 22.2-12.63 4.5-4.103 12.18-4.399 15.14-9.774-1.841-5.586-8.591-6.906-13.52-7.83-6.965 2.382-12.61 7.23-19.23 10.33-5.609 3.342-11.5 6.119-16.67 9.933-5.08 4.91-11.56 8.278-18.55 9.564-6.282 0.6373-12.55 1.968-18.78 3.217-4.638 2.365-13.31 2.331-11.26 9.733 0.5942 1.825-1.036 3.629 0.1109 5.462z" fill="#fff" style="paint-order:stroke fill markers"/>
  <path d="m44.88 114.6c4.431-3.56 9.879-5.542 14.83-8.22 6.233-2.46 12.78-4.269 18.58-7.687 3.989-0.8662 7.122-3.31 9.697-6.316 3.718-2.261 6.934-3.871 9.535-6.752 2.438-4.054 3.745-2.562 4.131 1.31 1.541 5.486 3.236 10.93 5.992 15.96 2.609 3.351-3.777 0.2371-4.706 3.148-4.541 2.378-13.03 2.279-15 6.348 2.772 5.723 8.763 9.782 9.79 16.37 1.945 4.36 3.927 8.701 6.443 12.75 1.119 3.875 5.193 8.166-0.575 10.26-3.974 3.123-8.751 4.921-13.22 7.06-1.985-4.38-3.86-8.789-5.858-13.16-1.641-4.115-2.128-8.648-4.638-12.45-2.059-4.48-4.689-8.426-6.932-12.72-1.617-6.881-5.815 1.653-10.02 1.434-4.321 0.4225-11.47 8.422-13.99 2.973-1.545-3.409-1.129-7.73-4.064-10.32z" fill="#6e6e6e" stroke-width="1.058" style="paint-order:stroke fill markers"/>
 </g>
 <g transform="translate(-1.264)">
  <path d="m24.81 152.7c4.431-7.261 12.59-13.75 22.87-19.04 7.479-4.791 16.86-8.775 22.79-14.22 4.296-2.842 8.99-5.596 11.15-9.136 1.776-2.319 9.424-6.787 13.52-4.175 2.202 3.642-0.8108 7.341-2.183 10.88-1.862 3.123-4.495 6.238-8.493 8.746-0.8526 3.372-8.58 4.685-8.428 7.871-3.418 2.715-6.766 5.393-8.615 8.542-2.09 2.703-5.155 5.959 0.5445 8.257 5.267 4.193 13.09-0.216 17.44-2.44 5.175-2.462 9.956-5.207 15.38-7.539 3.578-2.17 7.68-2.728 11.12-4.907 4.547-1.531 8.575-3.307 12.01-5.51 5.936-2.614 16.84-0.0714 16.4 4.146-0.1755 3.419 0.4679 8.27-5.747 10.14-4.891 2.258-10.43 4.015-16.19 5.607-6.358 1.252-11.61 3.385-17.49 5.168-7.518 2.416-15.97 3.988-23.23 6.647-7.124 2.044-13.61 5-17.31 8.835-4.959 0.6077-10.37-1.319-15.73-1.329-7.899-0.6777-15.89-1.392-23.8-1.77-8.192-4e-3 -2.753-5.045-2.644-7.497 1.24-2.619 3.313-5.214 6.642-7.276z" fill="#fb6" stroke="#868686" stroke-width="1.08" style="paint-order:stroke fill markers"/>
 </g>
</svg>
